<?xml version="1.0" standalone="no"?>
<!DOCTYPE svg PUBLIC "-//W3C//DTD SVG 20010904//EN"
 "http://www.w3.org/TR/2001/REC-SVG-20010904/DTD/svg10.dtd">
<svg version="1.0" xmlns="http://www.w3.org/2000/svg"
 width="2100.000000pt" height="599.000000pt" viewBox="0 0 2100.000000 599.000000"
 preserveAspectRatio="xMidYMid meet">

<g transform="translate(0.000000,599.000000) scale(0.100000,-0.100000)"
fill="#000000" stroke="none">
<path d="M3677 5976 c-67 -25 -111 -61 -142 -117 l-30 -54 -5 -1820 -5 -1820
-22 -40 c-96 -179 -356 -178 -445 2 -23 48 -23 50 -29 543 -5 458 -7 503 -28
603 -134 655 -646 1129 -1304 1207 -227 27 -515 -16 -739 -109 -214 -90 -475
-276 -534 -384 -60 -109 -26 -255 76 -319 119 -76 224 -59 349 56 226 207 525
299 826 252 227 -35 408 -127 570 -290 113 -113 200 -262 250 -423 l6 -23
-1123 0 c-704 0 -1136 -4 -1158 -10 -65 -18 -123 -63 -155 -121 -29 -52 -30
-59 -29 -169 2 -199 61 -435 154 -620 145 -288 412 -549 701 -684 120 -56 257
-99 384 -122 135 -24 375 -24 510 0 272 49 548 182 738 356 37 34 69 61 71 59
1 -2 17 -29 34 -59 96 -170 269 -303 462 -356 96 -27 280 -25 383 4 93 26 183
70 255 123 l52 40 53 -40 c131 -98 275 -145 447 -145 138 0 232 23 354 87 102
52 245 190 294 285 18 34 36 62 39 62 3 0 35 -27 71 -61 191 -175 467 -307
742 -356 97 -17 178 -18 1110 -18 l1005 0 79 23 c137 39 229 94 331 197 101
100 156 191 196 325 23 75 23 77 29 925 5 847 5 850 27 890 45 84 129 135 223
135 94 0 178 -51 223 -135 l22 -40 5 -1070 5 -1070 22 -40 c48 -90 127 -139
223 -139 96 0 175 49 223 139 l22 40 5 1070 5 1070 22 40 c96 179 350 179 446
0 22 -40 22 -43 27 -890 6 -848 6 -850 29 -925 40 -134 95 -225 196 -325 102
-103 194 -158 331 -197 l79 -23 1365 0 1365 0 79 23 c137 39 229 94 331 197
103 102 158 194 197 331 21 73 23 98 23 334 0 236 -2 261 -23 334 -39 137 -94
229 -197 331 -100 101 -191 156 -325 196 -75 23 -77 23 -925 29 -847 5 -850 5
-890 27 -52 28 -89 68 -114 123 -18 39 -21 65 -21 210 0 145 3 171 21 210 27
60 64 98 124 126 l50 24 1301 0 c968 0 1310 -3 1335 -12 58 -20 109 -60 137
-107 l27 -46 6 -505 c5 -469 7 -513 28 -613 63 -309 193 -550 415 -773 228
-227 489 -364 801 -420 135 -24 375 -24 510 0 249 45 503 161 703 322 l32 27
0 -254 c0 -277 -6 -319 -61 -463 -49 -130 -114 -230 -219 -337 -160 -163 -334
-253 -555 -289 -119 -19 -280 -14 -366 10 -16 5 -33 9 -37 10 -4 0 -25 6 -47
12 -22 6 -46 12 -52 14 -14 2 -118 54 -168 82 -53 30 -99 65 -166 128 -91 85
-137 108 -219 108 -116 1 -210 -73 -241 -189 -22 -79 8 -171 79 -244 68 -71
293 -241 318 -241 3 0 18 -8 32 -19 62 -42 313 -133 410 -147 20 -3 43 -7 51
-10 31 -10 163 -19 276 -18 552 5 1062 327 1313 829 84 166 152 420 152 564 0
31 4 62 8 68 6 10 325 13 1442 15 l1435 3 75 23 c135 42 225 96 325 197 103
102 158 194 197 331 21 73 23 98 23 334 0 236 -2 261 -23 334 -39 137 -94 229
-197 331 -100 101 -191 156 -325 196 -75 23 -77 23 -925 29 -847 5 -850 5
-890 27 -52 28 -89 68 -114 123 -18 39 -21 65 -21 210 0 145 3 171 21 210 25
55 62 95 114 123 l40 22 1070 5 1070 5 55 31 c62 35 114 107 125 175 17 97
-36 203 -125 253 l-55 31 -1090 0 -1090 0 -79 -23 c-137 -39 -229 -94 -331
-197 -103 -102 -158 -194 -197 -331 -21 -72 -23 -99 -23 -304 0 -205 2 -232
23 -304 39 -137 94 -229 197 -331 100 -101 191 -156 325 -196 75 -23 77 -23
925 -29 847 -5 850 -5 890 -27 52 -28 89 -68 114 -123 18 -40 21 -65 21 -240
0 -175 -3 -200 -21 -240 -27 -60 -64 -98 -124 -126 l-50 -24 -1402 0 -1403 0
-2 1158 -3 1157 -31 55 c-50 89 -156 142 -253 125 -68 -11 -140 -63 -175 -125
l-31 -55 -5 -740 c-5 -721 -6 -742 -27 -817 -54 -190 -135 -331 -267 -464
-394 -393 -1018 -393 -1412 0 -132 133 -214 276 -266 464 -21 73 -22 107 -28
602 -7 585 -6 576 -80 725 -110 224 -319 372 -572 405 -57 8 -490 10 -1403 8
l-1320 -3 -75 -23 c-134 -42 -225 -96 -325 -197 -103 -102 -158 -194 -197
-331 -21 -72 -23 -99 -23 -304 0 -205 2 -232 23 -304 39 -137 94 -229 197
-331 100 -101 191 -156 325 -196 75 -23 77 -23 925 -29 847 -5 850 -5 890 -27
52 -28 89 -68 114 -123 18 -40 21 -65 21 -240 0 -175 -3 -200 -21 -240 -27
-60 -64 -98 -124 -126 l-50 -24 -1305 0 c-1291 0 -1305 1 -1350 21 -55 25 -95
62 -123 114 -22 40 -22 43 -27 890 -6 848 -6 850 -29 925 -40 134 -95 225
-196 325 -152 152 -311 219 -525 219 -172 0 -316 -47 -447 -145 l-53 -40 -52
40 c-223 166 -533 194 -781 70 -34 -17 -86 -49 -114 -70 l-53 -40 -52 40
c-123 91 -276 144 -423 145 -83 1 -94 -1 -145 -30 -40 -23 -63 -45 -87 -83
-55 -92 -55 -170 0 -262 43 -70 108 -107 209 -118 117 -13 185 -59 227 -151
20 -44 21 -62 21 -850 l0 -805 -24 -50 c-28 -60 -66 -97 -126 -124 -44 -20
-61 -21 -1000 -21 -894 0 -961 1 -1045 19 -201 42 -366 131 -511 275 -122 123
-208 266 -259 434 l-6 22 1123 0 c704 0 1136 4 1158 10 65 18 123 63 155 121
29 52 30 59 29 169 -2 199 -61 435 -154 620 -145 288 -412 549 -701 684 -209
98 -401 140 -639 140 -414 0 -762 -145 -1056 -438 -222 -223 -352 -464 -415
-773 -21 -100 -23 -144 -28 -608 -6 -488 -7 -501 -28 -540 -45 -84 -129 -135
-223 -135 -100 0 -183 54 -226 145 l-24 50 0 1790 c0 1140 -4 1803 -10 1825
-5 20 -23 56 -38 80 -53 84 -185 130 -275 96z m2518 -2005 c205 -42 367 -131
515 -281 108 -109 175 -212 226 -348 l33 -87 -485 -3 c-266 -1 -702 -1 -968 0
l-485 3 33 87 c98 261 314 480 571 579 176 69 382 87 560 50z m-3730 -1253
c-92 -302 -317 -550 -600 -659 -374 -145 -787 -58 -1071 225 -122 123 -208
266 -259 434 l-6 22 971 0 971 0 -6 -22z"/>
<path d="M6655 5958 c-16 -6 -43 -20 -59 -31 -58 -41 -768 -763 -789 -802 -30
-56 -30 -164 1 -222 28 -53 81 -96 144 -117 69 -22 108 -20 174 9 50 22 107
75 436 406 266 266 385 393 399 422 26 58 25 148 -2 204 -26 53 -99 119 -148
133 -46 13 -117 12 -156 -2z"/>
</g>
</svg>
